<?xml version="1.0" encoding="utf-8" standalone="no"?>
<!DOCTYPE svg PUBLIC "-//W3C//DTD SVG 1.1//EN"
  "http://www.w3.org/Graphics/SVG/1.1/DTD/svg11.dtd">
<svg xmlns:xlink="http://www.w3.org/1999/xlink" width="568.8pt" height="255.6pt" viewBox="0 0 568.8 255.6" xmlns="http://www.w3.org/2000/svg" version="1.1">
 <metadata>
  <rdf:RDF xmlns:dc="http://purl.org/dc/elements/1.1/" xmlns:cc="http://creativecommons.org/ns#" xmlns:rdf="http://www.w3.org/1999/02/22-rdf-syntax-ns#">
   <cc:Work>
    <dc:type rdf:resource="http://purl.org/dc/dcmitype/StillImage"/>
    <dc:date>2026-08-16T12:36:36.328122</dc:date>
    <dc:format>image/svg+xml</dc:format>
    <dc:creator>
     <cc:Agent>
      <dc:title>Matplotlib v3.10.8, https://matplotlib.org/</dc:title>
     </cc:Agent>
    </dc:creator>
   </cc:Work>
  </rdf:RDF>
 </metadata>
 <defs>
  <style type="text/css">*{stroke-linejoin: round; stroke-linecap: butt}</style>
 </defs>
 <g id="figure_1">
  <g id="patch_1">
   <path d="M 0 255.6 
L 568.8 255.6 
L 568.8 0 
L 0 0 
z
"/>
  </g>
  <g id="axes_1">
   <g id="patch_2">
    <path d="M 133.668 210.87 
L 548.892 210.87 
L 548.892 57.51 
L 133.668 57.51 
z
"/>
   </g>
   <g id="patch_3">
    <path d="M 181.809913 210.87 
L 302.164696 210.87 
L 302.164696 57.51 
L 181.809913 57.51 
z
" clip-path="url(#pca8d6069b0)" style="fill: #ffffff; opacity: 0.035"/>
   </g>
   <g id="line2d_1">
    <path d="M 302.164696 210.87 
L 302.164696 57.51 
" clip-path="url(#pca8d6069b0)" style="fill: none; stroke-dasharray: 0.8,1.32; stroke-dashoffset: 0; stroke: #5c5048; stroke-width: 0.8"/>
   </g>
   <g id="matplotlib.axis_1">
    <g id="xtick_1">
     <g id="line2d_2"/>
     <g id="text_1">
      <!-- 2013 -->
      <g style="fill: #cbb8a9" transform="translate(140.653561 222.307344) scale(0.105 -0.105)">
       <defs>
        <path id="SortsMillGoudy-Regular-32" d="M 1382 13 
L 634 0 
Q 493 0 457 19 
Q 422 38 422 64 
L 422 102 
Q 422 173 608 384 
Q 794 595 1158 1123 
Q 1523 1651 1827 2320 
Q 2131 2989 2131 3552 
Q 2131 3821 1948 3993 
Q 1766 4166 1510 4166 
Q 1254 4166 1075 4102 
Q 896 4038 806 3962 
Q 582 3757 531 3757 
Q 480 3757 480 3814 
Q 480 3872 521 3949 
Q 563 4026 662 4138 
Q 762 4250 896 4352 
Q 1210 4602 1638 4602 
Q 2067 4602 2368 4365 
Q 2669 4128 2669 3715 
Q 2669 3302 2425 2745 
Q 2182 2189 1888 1750 
Q 1594 1312 1350 960 
Q 1107 608 1107 576 
Q 1107 499 1498 499 
L 2061 499 
Q 2221 499 2329 512 
Q 2438 525 2454 525 
Q 2470 525 2524 553 
Q 2579 582 2633 608 
Q 2688 634 2825 787 
Q 2963 941 3008 941 
Q 3078 941 3078 877 
Q 3078 813 2739 288 
L 2630 109 
Q 2554 0 2445 0 
L 1382 13 
z
" transform="scale(0.015625)"/>
        <path id="SortsMillGoudy-Regular-30" d="M 269 2067 
Q 269 3194 710 3875 
Q 1152 4557 1785 4557 
Q 2419 4557 2761 3923 
Q 3104 3290 3104 2291 
Q 3104 1293 2726 601 
Q 2349 -90 1658 -90 
Q 1344 -90 1097 32 
Q 851 154 697 352 
Q 544 550 448 832 
Q 269 1338 269 2067 
z
M 1600 4173 
Q 1126 4173 889 3693 
Q 653 3213 653 2573 
Q 653 1933 790 1408 
Q 928 883 1203 528 
Q 1478 173 1824 173 
Q 2266 173 2509 704 
Q 2752 1235 2752 1888 
Q 2752 2541 2627 3027 
Q 2502 3514 2233 3843 
Q 1965 4173 1600 4173 
z
" transform="scale(0.015625)"/>
        <path id="SortsMillGoudy-Regular-31" d="M 1837 6 
L 1094 -13 
Q 915 -13 915 90 
Q 915 211 1120 211 
L 1190 211 
Q 1517 211 1517 467 
Q 1587 1011 1587 2214 
L 1587 3514 
Q 1587 3718 1545 3814 
Q 1504 3910 1389 3910 
Q 1274 3910 1120 3862 
Q 966 3814 950 3814 
Q 934 3814 922 3827 
Q 870 3853 870 3910 
Q 870 4006 1056 4083 
Q 1094 4096 1267 4147 
Q 1440 4198 1584 4275 
Q 1728 4352 1818 4429 
Q 2016 4608 2061 4608 
Q 2163 4608 2163 4461 
L 2106 4134 
Q 2067 3328 2067 2010 
L 2048 755 
Q 2048 518 2125 387 
Q 2202 256 2314 230 
Q 2426 205 2538 205 
Q 2650 205 2726 189 
Q 2803 173 2803 89 
Q 2803 6 2592 6 
L 1837 6 
z
" transform="scale(0.015625)"/>
        <path id="SortsMillGoudy-Regular-33" d="M 384 301 
Q 384 403 518 403 
Q 544 403 627 333 
Q 896 102 1251 102 
Q 1606 102 1840 240 
Q 2074 378 2202 589 
Q 2458 1011 2458 1404 
Q 2458 1798 2250 2067 
Q 2042 2336 1555 2336 
Q 1453 2336 1408 2323 
Q 1363 2310 1357 2310 
Q 1267 2310 1267 2406 
Q 1267 2451 1318 2480 
Q 1370 2509 1421 2541 
Q 1562 2630 1798 2803 
Q 2202 3117 2202 3558 
Q 2202 3808 2032 3987 
Q 1862 4166 1644 4166 
Q 1427 4166 1241 4070 
Q 1056 3974 928 3878 
Q 800 3782 752 3782 
Q 704 3782 704 3840 
Q 704 4070 1069 4307 
Q 1434 4544 1789 4544 
Q 2144 4544 2419 4352 
Q 2694 4160 2694 3795 
Q 2694 3578 2604 3389 
Q 2515 3200 2444 3123 
Q 2374 3046 2227 2899 
Q 2080 2752 2080 2726 
Q 2080 2714 2150 2701 
Q 2432 2630 2586 2502 
Q 2995 2176 2995 1651 
Q 2995 890 2518 374 
Q 2042 -141 1382 -141 
Q 1024 -141 704 0 
Q 384 141 384 301 
z
" transform="scale(0.015625)"/>
       </defs>
       <use xlink:href="#SortsMillGoudy-Regular-32"/>
       <use xlink:href="#SortsMillGoudy-Regular-30" transform="translate(52.699997 0)"/>
       <use xlink:href="#SortsMillGoudy-Regular-31" transform="translate(105.399994 0)"/>
       <use xlink:href="#SortsMillGoudy-Regular-33" transform="translate(158.099991 0)"/>
      </g>
     </g>
    </g>
    <g id="xtick_2">
     <g id="line2d_3"/>
     <g id="text_2">
      <!-- 2015 -->
      <g style="fill: #cbb8a9" transform="translate(200.830952 222.307344) scale(0.105 -0.105)">
       <defs>
        <path id="SortsMillGoudy-Regular-35" d="M 2496 3917 
L 2074 3923 
Q 1632 3923 1443 3881 
Q 1254 3840 1242 3821 
Q 1203 3725 1145 3385 
Q 1088 3046 1088 2937 
Q 1088 2829 1133 2829 
Q 1139 2829 1155 2835 
Q 1171 2842 1209 2848 
Q 1248 2854 1306 2861 
Q 1478 2880 1721 2880 
Q 1965 2880 2221 2774 
Q 2477 2669 2630 2496 
Q 2963 2125 2963 1670 
Q 2963 1216 2812 851 
Q 2662 486 2419 269 
Q 1920 -186 1312 -186 
Q 1011 -186 713 -112 
Q 416 -38 416 102 
Q 416 198 506 198 
Q 525 198 723 124 
Q 922 51 1222 51 
Q 1760 51 2099 454 
Q 2438 858 2438 1427 
Q 2438 1843 2195 2121 
Q 1952 2400 1478 2400 
Q 1235 2400 1081 2371 
Q 928 2342 915 2342 
Q 768 2342 768 2502 
Q 768 2566 806 2797 
Q 966 3661 1043 4224 
Q 1069 4390 1248 4390 
Q 2419 4403 2496 4419 
Q 2573 4435 2621 4473 
Q 2669 4512 2714 4557 
Q 2790 4646 2842 4646 
Q 2918 4646 2918 4576 
Q 2918 4544 2893 4480 
Q 2656 3994 2614 3955 
Q 2573 3917 2496 3917 
z
" transform="scale(0.015625)"/>
       </defs>
       <use xlink:href="#SortsMillGoudy-Regular-32"/>
       <use xlink:href="#SortsMillGoudy-Regular-30" transform="translate(52.699997 0)"/>
       <use xlink:href="#SortsMillGoudy-Regular-31" transform="translate(105.399994 0)"/>
       <use xlink:href="#SortsMillGoudy-Regular-35" transform="translate(158.099991 0)"/>
      </g>
     </g>
    </g>
    <g id="xtick_3">
     <g id="line2d_4"/>
     <g id="text_3">
      <!-- 2017 -->
      <g style="fill: #cbb8a9" transform="translate(261.008344 222.307344) scale(0.105 -0.105)">
       <defs>
        <path id="SortsMillGoudy-Regular-37" d="M 1536 3930 
L 1344 3936 
Q 1018 3936 886 3840 
Q 755 3744 694 3542 
Q 634 3341 576 3341 
Q 493 3341 493 3539 
Q 493 3738 560 4010 
Q 627 4282 640 4346 
Q 646 4422 742 4422 
Q 768 4422 1027 4409 
Q 1286 4397 1779 4397 
L 1978 4397 
Q 2317 4397 2515 4403 
L 2714 4410 
Q 2784 4410 2832 4371 
Q 2880 4333 2880 4275 
Q 2880 3968 2710 3433 
Q 2541 2899 2333 2406 
Q 2125 1914 1955 1357 
Q 1786 800 1786 473 
Q 1786 147 1856 -64 
L 1920 -269 
Q 1920 -365 1766 -416 
Q 1613 -467 1491 -467 
Q 1370 -467 1286 -358 
Q 1203 -250 1203 144 
Q 1203 538 1430 1136 
Q 1658 1734 1984 2387 
Q 2541 3501 2541 3853 
Q 2541 3878 2505 3907 
Q 2470 3936 2413 3936 
L 2291 3942 
Q 2291 3942 1536 3930 
z
" transform="scale(0.015625)"/>
       </defs>
       <use xlink:href="#SortsMillGoudy-Regular-32"/>
       <use xlink:href="#SortsMillGoudy-Regular-30" transform="translate(52.699997 0)"/>
       <use xlink:href="#SortsMillGoudy-Regular-31" transform="translate(105.399994 0)"/>
       <use xlink:href="#SortsMillGoudy-Regular-37" transform="translate(158.099991 0)"/>
      </g>
     </g>
    </g>
    <g id="xtick_4">
     <g id="line2d_5"/>
     <g id="text_4">
      <!-- 2019 -->
      <g style="fill: #cbb8a9" transform="translate(321.185735 222.307344) scale(0.105 -0.105)">
       <defs>
        <path id="SortsMillGoudy-Regular-39" d="M 1606 1542 
Q 1018 1542 691 1964 
Q 365 2387 365 3001 
Q 365 3616 742 4080 
Q 1120 4544 1731 4544 
Q 2342 4544 2739 4045 
Q 3136 3546 3136 2854 
Q 3136 2163 2832 1497 
Q 2528 832 1958 397 
Q 1606 128 1222 -25 
Q 838 -179 614 -179 
Q 512 -179 512 -102 
Q 512 -26 608 -6 
Q 1229 122 1850 762 
Q 2061 986 2243 1366 
Q 2426 1747 2426 1827 
Q 2426 1907 2406 1907 
Q 2387 1907 2278 1818 
Q 1946 1542 1606 1542 
z
M 1638 4262 
Q 1229 4262 1033 3987 
Q 838 3712 838 3238 
Q 838 2765 1110 2307 
Q 1382 1850 1785 1850 
Q 2189 1850 2387 2144 
Q 2586 2438 2586 2912 
Q 2586 3386 2317 3824 
Q 2048 4262 1638 4262 
z
" transform="scale(0.015625)"/>
       </defs>
       <use xlink:href="#SortsMillGoudy-Regular-32"/>
       <use xlink:href="#SortsMillGoudy-Regular-30" transform="translate(52.699997 0)"/>
       <use xlink:href="#SortsMillGoudy-Regular-31" transform="translate(105.399994 0)"/>
       <use xlink:href="#SortsMillGoudy-Regular-39" transform="translate(158.099991 0)"/>
      </g>
     </g>
    </g>
    <g id="xtick_5">
     <g id="line2d_6"/>
     <g id="text_5">
      <!-- 2021 -->
      <g style="fill: #cbb8a9" transform="translate(381.363126 222.307344) scale(0.105 -0.105)">
       <use xlink:href="#SortsMillGoudy-Regular-32"/>
       <use xlink:href="#SortsMillGoudy-Regular-30" transform="translate(52.699997 0)"/>
       <use xlink:href="#SortsMillGoudy-Regular-32" transform="translate(105.399994 0)"/>
       <use xlink:href="#SortsMillGoudy-Regular-31" transform="translate(158.099991 0)"/>
      </g>
     </g>
    </g>
    <g id="xtick_6">
     <g id="line2d_7"/>
     <g id="text_6">
      <!-- 2023 -->
      <g style="fill: #cbb8a9" transform="translate(441.540518 222.307344) scale(0.105 -0.105)">
       <use xlink:href="#SortsMillGoudy-Regular-32"/>
       <use xlink:href="#SortsMillGoudy-Regular-30" transform="translate(52.699997 0)"/>
       <use xlink:href="#SortsMillGoudy-Regular-32" transform="translate(105.399994 0)"/>
       <use xlink:href="#SortsMillGoudy-Regular-33" transform="translate(158.099991 0)"/>
      </g>
     </g>
    </g>
    <g id="xtick_7">
     <g id="line2d_8"/>
     <g id="text_7">
      <!-- 2025 -->
      <g style="fill: #cbb8a9" transform="translate(501.717909 222.307344) scale(0.105 -0.105)">
       <use xlink:href="#SortsMillGoudy-Regular-32"/>
       <use xlink:href="#SortsMillGoudy-Regular-30" transform="translate(52.699997 0)"/>
       <use xlink:href="#SortsMillGoudy-Regular-32" transform="translate(105.399994 0)"/>
       <use xlink:href="#SortsMillGoudy-Regular-35" transform="translate(158.099991 0)"/>
      </g>
     </g>
    </g>
   </g>
   <g id="matplotlib.axis_2">
    <g id="ytick_1">
     <g id="line2d_9"/>
     <g id="text_8">
      <!-- All-payer ACO model -->
      <g style="fill: #cbb8a9" transform="translate(38.521203 194.590352) scale(0.095 -0.095)">
       <defs>
        <path id="SortsMillGoudy-Regular-41" d="M 864 0 
L 314 -26 
Q 128 -26 128 51 
Q 128 141 224 173 
Q 429 250 582 515 
Q 736 781 1353 2121 
Q 1971 3462 2451 4486 
Q 2496 4582 2531 4608 
Q 2566 4634 2633 4634 
Q 2701 4634 2720 4608 
Q 2739 4582 2790 4435 
Q 2842 4288 2870 4211 
Q 2899 4134 2963 3961 
Q 3027 3789 3168 3443 
Q 3309 3098 3811 1930 
Q 4314 762 4390 605 
Q 4467 448 4601 336 
Q 4736 224 4835 214 
Q 4934 205 5001 182 
Q 5069 160 5069 83 
Q 5069 -13 4896 -13 
L 4320 26 
L 3725 0 
Q 3526 0 3472 16 
Q 3418 32 3418 83 
Q 3418 134 3469 163 
Q 3520 192 3577 201 
Q 3635 211 3686 259 
Q 3738 307 3738 419 
Q 3738 531 3578 966 
Q 3418 1402 3309 1606 
Q 3251 1715 3046 1715 
L 2272 1702 
L 1933 1702 
Q 1645 1702 1571 1670 
Q 1498 1638 1450 1536 
Q 1402 1434 1312 1251 
Q 1222 1069 1190 998 
Q 1158 928 1114 819 
Q 1030 627 1030 499 
Q 1030 371 1104 294 
Q 1178 218 1267 205 
Q 1504 186 1504 83 
Q 1504 38 1485 16 
Q 1466 -6 1395 -6 
L 864 0 
z
M 2406 3648 
Q 2349 3648 2041 2941 
Q 1734 2234 1734 2157 
Q 1734 2080 1792 2061 
Q 1850 2042 2061 2042 
L 2259 2042 
L 2867 2048 
Q 3117 2048 3117 2141 
Q 3117 2234 2803 2941 
Q 2490 3648 2406 3648 
z
" transform="scale(0.015625)"/>
        <path id="SortsMillGoudy-Regular-6c" d="M 582 1229 
L 608 3949 
Q 608 4096 560 4214 
Q 512 4333 454 4358 
Q 397 4384 198 4384 
Q 128 4384 128 4429 
Q 128 4474 137 4493 
Q 147 4512 179 4528 
Q 211 4544 256 4557 
Q 442 4595 640 4691 
Q 954 4838 1050 4838 
Q 1126 4838 1126 4717 
Q 1126 4691 1114 4570 
Q 1075 4192 1075 3744 
L 1075 3386 
L 1062 2534 
L 1062 627 
Q 1062 493 1084 406 
Q 1107 320 1232 240 
Q 1357 160 1581 160 
Q 1613 160 1638 128 
Q 1664 96 1664 64 
Q 1664 -26 1466 -26 
L 819 19 
Q 653 19 502 -6 
Q 352 -32 304 -32 
Q 256 -32 227 -9 
Q 198 13 198 48 
Q 198 83 227 105 
Q 256 128 320 141 
Q 512 192 550 297 
Q 589 403 589 589 
L 582 755 
L 582 1229 
z
" transform="scale(0.015625)"/>
        <path id="SortsMillGoudy-Regular-2d" d="M 282 928 
L 282 998 
Q 282 1184 342 1235 
Q 403 1286 694 1372 
Q 986 1459 1248 1552 
Q 1510 1645 1603 1680 
Q 1696 1715 1754 1715 
Q 1894 1715 1894 1498 
L 1894 1459 
Q 1894 1312 1830 1261 
Q 1773 1222 1683 1197 
Q 1306 1094 1024 992 
Q 742 890 666 858 
Q 474 794 378 794 
Q 282 794 282 928 
z
" transform="scale(0.015625)"/>
        <path id="SortsMillGoudy-Regular-70" d="M 640 -397 
L 659 1370 
L 659 1510 
Q 659 2042 611 2218 
Q 563 2394 358 2394 
Q 250 2394 224 2410 
Q 198 2426 198 2461 
Q 198 2496 252 2515 
Q 307 2534 473 2585 
Q 640 2637 857 2742 
Q 1075 2848 1094 2848 
Q 1178 2848 1178 2765 
L 1152 2387 
Q 1152 2336 1165 2336 
Q 1178 2336 1226 2381 
Q 1274 2426 1350 2493 
Q 1427 2560 1536 2624 
Q 1786 2778 2131 2778 
Q 2701 2778 3001 2403 
Q 3302 2029 3302 1462 
Q 3302 896 2928 419 
Q 2554 -58 1926 -58 
Q 1632 -58 1449 3 
Q 1267 64 1196 125 
Q 1126 186 1104 186 
Q 1082 186 1082 134 
L 1082 -653 
Q 1082 -774 1190 -954 
Q 1261 -1069 1405 -1088 
Q 1549 -1107 1648 -1113 
Q 1747 -1120 1747 -1200 
Q 1747 -1280 1530 -1280 
Q 1491 -1280 1324 -1267 
Q 1158 -1254 864 -1254 
L 461 -1274 
Q 320 -1274 281 -1261 
Q 243 -1248 243 -1200 
Q 243 -1152 304 -1126 
Q 365 -1101 441 -1081 
Q 518 -1062 579 -924 
Q 640 -787 640 -525 
L 640 -397 
z
M 1082 1229 
L 1088 909 
Q 1088 685 1184 525 
Q 1280 365 1434 282 
Q 1715 134 2029 134 
Q 2445 134 2665 438 
Q 2886 742 2886 1216 
Q 2886 1690 2614 2074 
Q 2342 2458 1882 2458 
Q 1555 2458 1299 2253 
Q 1165 2150 1123 1974 
Q 1082 1798 1082 1229 
z
" transform="scale(0.015625)"/>
        <path id="SortsMillGoudy-Regular-61" d="M 1062 -96 
Q 307 -96 307 544 
Q 307 1005 691 1178 
Q 1011 1312 1670 1421 
Q 1690 1427 1722 1430 
Q 1754 1434 1789 1440 
Q 1824 1446 1843 1453 
Q 1888 1472 1888 1542 
L 1901 1875 
Q 1901 2240 1689 2403 
Q 1478 2566 1280 2566 
Q 819 2566 819 2182 
L 845 1952 
Q 845 1824 730 1824 
Q 640 1824 531 1856 
Q 333 1920 333 2074 
Q 333 2323 669 2550 
Q 1005 2778 1344 2778 
Q 1683 2778 1875 2714 
Q 2067 2650 2160 2570 
Q 2253 2490 2304 2355 
Q 2368 2195 2368 1852 
Q 2368 1510 2352 1244 
Q 2336 979 2336 761 
Q 2336 544 2387 406 
Q 2438 269 2508 230 
Q 2579 192 2650 186 
Q 2822 173 2822 83 
Q 2822 -51 2419 -51 
Q 2253 -51 2134 38 
Q 2016 128 1965 214 
Q 1914 301 1907 301 
Q 1901 301 1856 259 
Q 1811 218 1731 160 
Q 1651 102 1549 45 
Q 1312 -96 1062 -96 
z
M 1843 1331 
L 1779 1318 
Q 1632 1293 1593 1286 
Q 1555 1280 1414 1248 
Q 1274 1216 1219 1190 
Q 1165 1165 1065 1110 
Q 966 1056 922 998 
Q 806 819 806 620 
Q 806 422 934 291 
Q 1062 160 1264 160 
Q 1466 160 1584 211 
Q 1702 262 1760 326 
Q 1818 390 1850 499 
Q 1888 621 1888 813 
L 1888 1274 
Q 1888 1331 1843 1331 
z
" transform="scale(0.015625)"/>
        <path id="SortsMillGoudy-Regular-79" d="M 1306 -1216 
L 1030 -1222 
Q 909 -1222 909 -1139 
Q 909 -1120 1053 -941 
Q 1197 -762 1344 -499 
Q 1491 -237 1491 -35 
Q 1491 166 1126 960 
Q 762 1754 493 2259 
Q 422 2387 348 2457 
Q 275 2528 230 2534 
Q 128 2547 128 2630 
Q 128 2714 256 2714 
L 941 2701 
L 1306 2714 
Q 1350 2714 1385 2691 
Q 1421 2669 1421 2643 
Q 1421 2528 1267 2528 
L 1171 2528 
Q 1069 2528 1069 2368 
Q 1069 2176 1408 1446 
Q 1459 1338 1562 1101 
Q 1754 666 1792 666 
Q 1830 666 2089 1402 
Q 2349 2138 2349 2278 
Q 2349 2419 2288 2476 
Q 2227 2534 2150 2534 
Q 1952 2522 1952 2643 
Q 1952 2720 2074 2720 
L 2534 2714 
L 2931 2720 
Q 3066 2720 3066 2637 
Q 3066 2573 2954 2544 
Q 2842 2515 2803 2464 
Q 2701 2317 2458 1658 
L 1888 141 
Q 1818 -45 1747 -240 
Q 1677 -435 1632 -556 
Q 1587 -678 1542 -800 
Q 1498 -922 1472 -989 
Q 1446 -1056 1421 -1114 
Q 1370 -1216 1325 -1216 
L 1306 -1216 
z
" transform="scale(0.015625)"/>
        <path id="SortsMillGoudy-Regular-65" d="M 1600 -122 
Q 1037 -122 643 224 
Q 250 570 250 1226 
Q 250 1882 611 2323 
Q 973 2765 1549 2765 
Q 1818 2765 2038 2669 
Q 2259 2573 2380 2435 
Q 2502 2298 2586 2144 
Q 2726 1882 2726 1747 
Q 2726 1632 2464 1632 
L 819 1632 
Q 768 1632 758 1622 
Q 749 1613 749 1562 
Q 749 960 1072 614 
Q 1395 269 1830 269 
Q 2099 269 2377 413 
Q 2656 557 2669 557 
Q 2733 557 2733 499 
Q 2733 422 2592 291 
Q 2451 160 2323 77 
Q 2016 -122 1600 -122 
z
M 870 1786 
L 1997 1824 
Q 2086 1824 2108 1840 
Q 2131 1856 2131 1901 
Q 2131 2093 1952 2349 
Q 1773 2605 1453 2605 
Q 1133 2605 960 2352 
Q 787 2099 787 1875 
Q 787 1786 870 1786 
z
" transform="scale(0.015625)"/>
        <path id="SortsMillGoudy-Regular-72" d="M 333 2323 
L 262 2330 
Q 141 2330 141 2432 
Q 141 2502 227 2537 
Q 314 2573 547 2646 
Q 781 2720 915 2781 
Q 1050 2842 1075 2842 
Q 1158 2842 1158 2714 
L 1152 2541 
Q 1152 2310 1168 2288 
Q 1184 2266 1200 2266 
Q 1216 2266 1299 2394 
Q 1382 2522 1536 2653 
Q 1690 2784 1840 2784 
Q 1990 2784 2150 2678 
Q 2310 2573 2310 2467 
Q 2310 2362 2259 2272 
Q 2170 2118 2093 2118 
Q 2042 2118 1910 2195 
Q 1779 2272 1606 2272 
Q 1434 2272 1283 2131 
Q 1133 1990 1133 1875 
L 1133 1210 
L 1139 653 
L 1146 538 
Q 1146 403 1235 307 
Q 1325 211 1405 198 
Q 1485 186 1542 179 
Q 1600 173 1632 169 
Q 1664 166 1702 154 
Q 1773 141 1773 61 
Q 1773 -19 1696 -19 
L 1152 13 
L 486 -19 
Q 371 -19 358 6 
Q 346 32 346 58 
Q 346 141 429 166 
Q 595 205 630 329 
Q 666 454 666 864 
L 659 1894 
L 653 2086 
Q 653 2157 634 2202 
Q 582 2323 333 2323 
z
" transform="scale(0.015625)"/>
        <path id="SortsMillGoudy-Regular-20" transform="scale(0.015625)"/>
        <path id="SortsMillGoudy-Regular-43" d="M 282 2080 
Q 282 2771 550 3328 
Q 819 3885 1379 4227 
Q 1939 4570 2707 4570 
Q 3098 4570 3494 4454 
Q 3891 4339 4128 4224 
L 4365 4102 
Q 4384 4102 4429 4134 
Q 4474 4166 4502 4166 
Q 4531 4166 4563 4140 
Q 4595 4115 4598 3996 
Q 4602 3878 4624 3670 
Q 4646 3462 4665 3328 
Q 4685 3194 4685 3168 
Q 4685 3053 4608 3053 
Q 4550 3053 4499 3142 
Q 3878 4307 2707 4307 
Q 1907 4307 1395 3795 
Q 883 3283 883 2458 
Q 883 1536 1357 883 
Q 1600 550 2022 358 
Q 2445 166 3008 166 
Q 3930 166 4557 1126 
Q 4582 1171 4653 1171 
Q 4710 1171 4710 1091 
Q 4710 1011 4688 892 
Q 4666 774 4634 630 
Q 4602 486 4595 454 
Q 4582 384 4493 339 
Q 4147 173 3955 90 
Q 3443 -128 2864 -128 
Q 2285 -128 1837 6 
Q 1389 141 1104 358 
Q 819 576 627 870 
Q 282 1389 282 2080 
z
" transform="scale(0.015625)"/>
        <path id="SortsMillGoudy-Regular-4f" d="M 282 2170 
Q 282 3245 928 3933 
Q 1574 4621 2758 4621 
Q 3309 4621 3750 4461 
Q 4192 4301 4448 4067 
Q 4704 3834 4877 3533 
Q 5178 3008 5178 2509 
Q 5178 1638 4838 1037 
Q 4192 -102 2669 -102 
Q 1907 -102 1353 230 
Q 800 563 541 1068 
Q 282 1574 282 2170 
z
M 845 2496 
Q 845 1926 1146 1331 
Q 1306 1011 1533 758 
Q 1760 506 2109 342 
Q 2458 179 2874 179 
Q 3347 179 3808 454 
Q 4320 755 4531 1293 
Q 4653 1581 4653 1920 
Q 4653 3078 4045 3721 
Q 3437 4365 2541 4365 
Q 1837 4365 1341 3891 
Q 845 3418 845 2496 
z
" transform="scale(0.015625)"/>
        <path id="SortsMillGoudy-Regular-6d" d="M 634 1331 
L 627 2112 
Q 627 2266 560 2330 
Q 493 2394 410 2394 
Q 198 2381 198 2483 
Q 198 2541 275 2569 
Q 352 2598 505 2630 
Q 659 2662 729 2691 
Q 800 2720 845 2745 
Q 890 2771 909 2778 
Q 966 2803 1043 2803 
Q 1120 2803 1120 2618 
L 1088 2349 
Q 1088 2272 1126 2272 
Q 1133 2272 1168 2320 
Q 1203 2368 1264 2435 
Q 1325 2502 1414 2573 
Q 1632 2733 1929 2733 
Q 2227 2733 2400 2653 
Q 2573 2573 2640 2480 
Q 2707 2387 2752 2307 
Q 2797 2227 2806 2227 
Q 2816 2227 2928 2358 
Q 3040 2490 3248 2621 
Q 3456 2752 3686 2752 
Q 4154 2752 4406 2477 
Q 4659 2202 4700 1808 
Q 4742 1414 4742 979 
L 4742 774 
Q 4742 486 4774 358 
Q 4806 230 4922 192 
Q 4928 192 4979 182 
Q 5030 173 5069 166 
Q 5165 147 5165 70 
Q 5165 -26 4954 -26 
L 4531 0 
L 4070 -26 
Q 3917 -26 3917 41 
Q 3917 109 4051 160 
Q 4186 211 4211 269 
Q 4237 339 4237 563 
L 4237 666 
L 4230 1344 
L 4211 1766 
Q 4211 1837 4192 1897 
Q 4173 1958 4169 1990 
Q 4166 2022 4134 2067 
Q 4102 2112 4096 2125 
Q 4070 2176 3994 2253 
Q 3827 2451 3514 2451 
Q 3366 2451 3206 2374 
Q 3046 2298 2950 2218 
Q 2854 2138 2854 2112 
Q 2854 2086 2867 2016 
Q 2893 1805 2893 1293 
L 2893 749 
Q 2893 454 2976 316 
Q 3059 179 3334 141 
Q 3398 134 3424 99 
Q 3450 64 3450 38 
Q 3450 -32 3328 -32 
L 2861 0 
L 2278 -32 
Q 2138 -32 2138 51 
Q 2138 96 2163 118 
Q 2189 141 2256 166 
Q 2323 192 2345 205 
Q 2368 218 2400 314 
Q 2432 410 2432 506 
L 2432 627 
L 2438 883 
L 2438 1274 
L 2432 1613 
L 2426 1677 
Q 2426 2016 2253 2221 
Q 2080 2426 1792 2426 
Q 1504 2426 1293 2285 
Q 1082 2144 1082 1958 
L 1082 666 
Q 1082 435 1165 313 
Q 1248 192 1350 176 
Q 1453 160 1536 141 
Q 1619 122 1619 77 
Q 1619 19 1600 0 
Q 1581 -19 1485 -19 
L 947 0 
L 442 -19 
Q 288 -19 288 77 
Q 288 147 403 166 
Q 448 173 499 221 
Q 550 269 592 403 
Q 634 538 634 1331 
z
" transform="scale(0.015625)"/>
        <path id="SortsMillGoudy-Regular-6f" d="M 1680 -115 
Q 1024 -115 637 304 
Q 250 723 250 1305 
Q 250 1888 650 2323 
Q 1050 2758 1706 2758 
Q 2362 2758 2806 2380 
Q 3251 2003 3251 1331 
Q 3251 659 2793 272 
Q 2336 -115 1680 -115 
z
M 1606 2586 
Q 1274 2586 1014 2323 
Q 755 2061 755 1459 
Q 755 858 1107 467 
Q 1459 77 1865 77 
Q 2272 77 2521 355 
Q 2771 634 2771 1171 
Q 2771 1709 2464 2147 
Q 2157 2586 1606 2586 
z
" transform="scale(0.015625)"/>
        <path id="SortsMillGoudy-Regular-64" d="M 2522 -19 
L 2502 218 
Q 2502 326 2445 326 
Q 2426 326 2352 262 
Q 2278 198 2182 118 
Q 2086 38 1904 -26 
Q 1722 -90 1510 -90 
Q 915 -90 582 304 
Q 250 698 250 1283 
Q 250 1869 662 2336 
Q 1075 2803 1805 2803 
Q 1971 2803 2243 2710 
Q 2515 2618 2540 2618 
Q 2566 2618 2566 2848 
L 2579 3674 
Q 2579 4019 2544 4160 
Q 2509 4301 2435 4345 
Q 2362 4390 2240 4390 
L 2170 4390 
Q 2074 4390 2054 4396 
Q 2035 4403 2035 4442 
L 2035 4448 
Q 2035 4493 2099 4515 
Q 2163 4538 2358 4598 
Q 2554 4659 2666 4710 
Q 2778 4762 2835 4787 
Q 2957 4851 3008 4851 
Q 3085 4851 3085 4723 
Q 3085 4704 3043 4179 
Q 3002 3654 3002 3334 
L 2989 998 
Q 2989 563 3030 416 
Q 3072 269 3213 224 
Q 3232 218 3321 202 
Q 3411 186 3449 163 
Q 3488 141 3488 90 
Q 3488 13 2995 -26 
Q 2893 -32 2758 -61 
Q 2624 -90 2592 -90 
Q 2522 -90 2522 -19 
z
M 1600 2618 
Q 1184 2618 947 2314 
Q 710 2010 710 1536 
Q 710 1062 1008 652 
Q 1306 243 1773 243 
Q 2061 243 2297 390 
Q 2534 538 2534 749 
L 2541 1843 
Q 2541 2234 2362 2336 
Q 1888 2618 1600 2618 
z
" transform="scale(0.015625)"/>
       </defs>
       <use xlink:href="#SortsMillGoudy-Regular-41"/>
       <use xlink:href="#SortsMillGoudy-Regular-6c" transform="translate(81.199982 0)"/>
       <use xlink:href="#SortsMillGoudy-Regular-6c" transform="translate(109.099976 0)"/>
       <use xlink:href="#SortsMillGoudy-Regular-2d" transform="translate(136.999969 0)"/>
       <use xlink:href="#SortsMillGoudy-Regular-70" transform="translate(170.999954 0)"/>
       <use xlink:href="#SortsMillGoudy-Regular-61" transform="translate(226.499939 0)"/>
       <use xlink:href="#SortsMillGoudy-Regular-79" transform="translate(272.59993 0)"/>
       <use xlink:href="#SortsMillGoudy-Regular-65" transform="translate(322.399918 0)"/>
       <use xlink:href="#SortsMillGoudy-Regular-72" transform="translate(368.999908 0)"/>
       <use xlink:href="#SortsMillGoudy-Regular-20" transform="translate(406.499893 0)"/>
       <use xlink:href="#SortsMillGoudy-Regular-41" transform="translate(427.799881 0)"/>
       <use xlink:href="#SortsMillGoudy-Regular-43" transform="translate(508.999863 0)"/>
       <use xlink:href="#SortsMillGoudy-Regular-4f" transform="translate(589.699844 0)"/>
       <use xlink:href="#SortsMillGoudy-Regular-20" transform="translate(674.999832 0)"/>
       <use xlink:href="#SortsMillGoudy-Regular-6d" transform="translate(696.29982 0)"/>
       <use xlink:href="#SortsMillGoudy-Regular-6f" transform="translate(778.999802 0)"/>
       <use xlink:href="#SortsMillGoudy-Regular-64" transform="translate(833.699799 0)"/>
       <use xlink:href="#SortsMillGoudy-Regular-65" transform="translate(890.199783 0)"/>
       <use xlink:href="#SortsMillGoudy-Regular-6c" transform="translate(936.799774 0)"/>
      </g>
     </g>
    </g>
    <g id="ytick_2">
     <g id="line2d_10"/>
     <g id="text_9">
      <!-- Medicaid Next Generation -->
      <g style="fill: #cbb8a9" transform="translate(20.759172 166.180703) scale(0.095 -0.095)">
       <defs>
        <path id="SortsMillGoudy-Regular-4d" d="M 403 -13 
Q 269 -13 269 90 
Q 269 173 461 179 
Q 531 186 620 285 
Q 710 384 748 550 
Q 787 717 832 1689 
Q 877 2662 877 3216 
Q 877 3770 752 4013 
Q 627 4256 211 4352 
Q 128 4371 128 4448 
Q 128 4544 243 4544 
L 582 4518 
L 1062 4531 
Q 1184 4531 1216 4442 
Q 1293 4275 1491 3843 
Q 1690 3411 1808 3155 
Q 1926 2899 2112 2502 
Q 2298 2106 2413 1859 
Q 2528 1613 2653 1363 
Q 2778 1114 2845 995 
Q 2912 877 2931 877 
Q 2950 877 2972 899 
Q 2995 922 3017 960 
Q 3040 998 3056 1036 
Q 3072 1075 3101 1136 
Q 3130 1197 3142 1229 
L 3968 2931 
Q 4307 3622 4422 3898 
L 4570 4218 
Q 4589 4269 4598 4297 
Q 4608 4326 4614 4342 
Q 4621 4358 4627 4371 
Q 4634 4384 4650 4429 
Q 4666 4474 4685 4493 
Q 4736 4544 4870 4544 
L 5421 4531 
Q 5530 4531 5530 4448 
Q 5530 4384 5488 4355 
Q 5446 4326 5302 4307 
Q 5158 4288 5094 4147 
Q 5030 4006 5030 3376 
Q 5030 2746 5068 2045 
Q 5107 1344 5107 1165 
Q 5107 525 5209 349 
Q 5312 173 5638 173 
Q 5683 173 5718 141 
Q 5754 109 5754 83 
Q 5754 -19 5683 -19 
L 5613 -19 
L 4960 6 
Q 4960 6 4294 -26 
Q 4179 -26 4179 64 
Q 4179 160 4352 179 
Q 4416 186 4489 259 
Q 4563 333 4592 470 
Q 4621 608 4621 851 
Q 4621 1094 4611 1382 
Q 4602 1670 4589 1942 
Q 4576 2214 4563 2454 
Q 4550 2694 4544 2848 
L 4531 3002 
Q 4531 3277 4474 3277 
Q 4454 3277 4438 3257 
Q 4422 3238 4409 3225 
Q 4397 3213 4384 3184 
Q 4371 3155 4358 3136 
Q 4346 3117 4326 3081 
Q 4307 3046 4294 3021 
L 4262 2950 
Q 4237 2906 4224 2874 
L 3334 1075 
Q 3181 762 3037 461 
Q 2893 160 2867 118 
Q 2842 77 2794 77 
Q 2746 77 2707 131 
Q 2669 186 2592 371 
Q 2515 557 2458 678 
Q 1286 3059 1260 3094 
Q 1235 3130 1216 3130 
Q 1165 3130 1165 2874 
L 1107 1184 
L 1107 896 
Q 1107 371 1318 250 
Q 1427 186 1530 179 
Q 1690 160 1690 93 
Q 1690 26 1670 3 
Q 1651 -19 1594 -19 
L 928 6 
L 403 -13 
z
" transform="scale(0.015625)"/>
        <path id="SortsMillGoudy-Regular-69" d="M 1018 -26 
L 563 -38 
Q 307 -38 307 48 
Q 307 134 403 166 
Q 410 166 429 173 
Q 576 224 621 326 
Q 666 429 666 1318 
L 666 1882 
Q 666 2067 621 2176 
Q 576 2285 537 2310 
Q 499 2336 406 2352 
Q 314 2368 272 2384 
Q 230 2400 230 2435 
Q 230 2470 246 2489 
Q 262 2509 310 2531 
Q 358 2554 410 2573 
Q 589 2624 704 2675 
Q 819 2726 880 2752 
Q 941 2778 960 2790 
Q 1005 2810 1069 2810 
Q 1165 2810 1165 2688 
L 1126 2381 
L 1126 627 
Q 1126 435 1187 326 
Q 1248 218 1315 192 
Q 1382 166 1472 160 
Q 1562 154 1587 154 
Q 1677 141 1677 64 
Q 1677 -45 1568 -45 
L 1472 -38 
L 1018 -26 
z
M 909 3411 
Q 781 3411 688 3545 
Q 595 3680 595 3766 
Q 595 3853 707 3990 
Q 819 4128 918 4128 
Q 1018 4128 1114 3997 
Q 1210 3866 1210 3763 
Q 1210 3661 1088 3536 
Q 966 3411 909 3411 
z
" transform="scale(0.015625)"/>
        <path id="SortsMillGoudy-Regular-63" d="M 1574 -134 
Q 973 -134 611 230 
Q 250 595 250 1219 
Q 250 1843 662 2294 
Q 1075 2746 1734 2746 
Q 1958 2746 2217 2682 
Q 2477 2618 2483 2534 
Q 2496 2381 2496 2166 
Q 2496 1952 2426 1952 
Q 2362 1952 2310 2035 
Q 2202 2221 1898 2358 
Q 1594 2496 1363 2496 
Q 1235 2496 1113 2400 
Q 992 2304 915 2189 
Q 730 1920 730 1427 
Q 730 934 1046 566 
Q 1363 198 1824 198 
Q 2048 198 2240 281 
Q 2432 365 2537 448 
Q 2643 531 2669 531 
Q 2739 531 2739 467 
Q 2739 403 2604 272 
Q 2470 141 2342 64 
Q 2029 -134 1574 -134 
z
" transform="scale(0.015625)"/>
        <path id="SortsMillGoudy-Regular-4e" d="M 922 -13 
L 378 -26 
Q 237 -26 237 77 
Q 237 134 320 150 
Q 403 166 524 249 
Q 646 333 697 521 
Q 749 710 806 1753 
Q 864 2797 864 3270 
Q 864 3744 710 4016 
Q 557 4288 211 4326 
Q 128 4333 128 4422 
Q 128 4461 173 4496 
Q 218 4531 288 4531 
L 531 4525 
L 845 4538 
Q 902 4538 979 4502 
Q 1056 4467 1069 4438 
Q 1082 4410 1139 4342 
Q 1197 4275 1293 4166 
Q 1389 4058 1466 3955 
Q 2336 2822 3795 1222 
Q 3834 1178 3888 1120 
Q 3942 1062 3964 1033 
Q 3987 1005 4013 979 
Q 4058 934 4083 934 
Q 4147 934 4147 1331 
L 4147 2080 
L 4134 3392 
L 4134 3437 
Q 4134 4026 3930 4186 
Q 3853 4243 3801 4259 
Q 3750 4275 3654 4294 
Q 3392 4346 3392 4438 
Q 3392 4531 3514 4531 
L 4122 4525 
Q 4122 4525 4698 4538 
Q 4806 4538 4848 4515 
Q 4890 4493 4890 4448 
Q 4890 4403 4851 4378 
Q 4800 4346 4666 4301 
Q 4454 4186 4454 3578 
L 4454 3334 
L 4384 166 
L 4384 38 
Q 4384 -109 4294 -109 
Q 4237 -109 4192 -64 
Q 2067 2400 1654 2864 
Q 1242 3328 1197 3328 
Q 1133 3328 1133 2806 
Q 1133 2285 1107 1584 
Q 1082 883 1082 819 
Q 1082 531 1181 380 
Q 1280 230 1395 211 
Q 1510 192 1609 169 
Q 1709 147 1709 80 
Q 1709 13 1686 -6 
Q 1664 -26 1606 -26 
L 922 -13 
z
" transform="scale(0.015625)"/>
        <path id="SortsMillGoudy-Regular-78" d="M 806 13 
L 467 -13 
Q 186 -13 186 90 
Q 186 122 205 134 
Q 224 147 307 176 
Q 390 205 489 269 
Q 589 333 707 429 
Q 826 525 947 646 
Q 1069 768 1145 848 
Q 1222 928 1340 1062 
Q 1459 1197 1484 1229 
Q 1510 1261 1510 1289 
Q 1510 1318 1436 1411 
Q 1363 1504 1216 1680 
Q 1069 1856 944 2019 
Q 819 2182 672 2313 
Q 525 2445 438 2461 
Q 352 2477 275 2531 
Q 198 2586 198 2643 
Q 198 2720 288 2720 
L 787 2688 
L 1306 2714 
Q 1408 2714 1440 2694 
Q 1472 2675 1472 2633 
Q 1472 2592 1366 2553 
Q 1261 2515 1261 2445 
Q 1261 2387 1385 2220 
Q 1510 2054 1619 1894 
Q 1811 1619 1850 1619 
Q 1869 1619 1914 1670 
Q 2362 2240 2381 2285 
Q 2400 2330 2400 2387 
Q 2400 2483 2253 2540 
Q 2106 2598 2106 2637 
Q 2106 2714 2272 2714 
L 2675 2707 
L 3117 2720 
Q 3162 2720 3200 2694 
Q 3238 2669 3238 2633 
Q 3238 2598 3203 2576 
Q 3168 2554 3110 2534 
Q 2931 2490 2694 2253 
Q 1958 1517 1958 1446 
Q 1958 1427 2099 1270 
Q 2240 1114 2393 925 
Q 2547 736 2608 662 
Q 2669 589 2694 560 
Q 2720 531 2781 464 
Q 2842 397 2886 361 
Q 2931 326 2995 282 
Q 3104 192 3190 166 
Q 3277 141 3290 134 
Q 3322 115 3322 70 
Q 3322 26 3283 10 
Q 3245 -6 3104 -6 
L 2726 6 
L 2349 -6 
L 2278 -6 
Q 2061 -6 2061 58 
Q 2061 90 2173 128 
Q 2285 166 2285 246 
Q 2285 326 2195 454 
Q 2106 582 1952 768 
Q 1798 954 1740 1037 
Q 1683 1120 1670 1120 
Q 1658 1120 1594 1056 
Q 1517 960 1408 832 
L 1242 640 
Q 1101 474 1101 362 
Q 1101 250 1149 205 
Q 1197 160 1254 154 
Q 1402 147 1402 51 
Q 1402 26 1395 13 
Q 1370 -6 1139 -6 
L 806 13 
z
" transform="scale(0.015625)"/>
        <path id="SortsMillGoudy-Regular-74" d="M 403 2374 
L 282 2368 
Q 173 2368 173 2458 
Q 173 2522 230 2566 
Q 474 2726 717 3046 
Q 819 3194 880 3261 
Q 941 3328 1005 3328 
Q 1069 3328 1069 3181 
Q 1069 3181 1043 2816 
Q 1043 2726 1078 2707 
Q 1114 2688 1306 2688 
L 1530 2688 
Q 1818 2688 1882 2720 
Q 1997 2778 2022 2778 
Q 2086 2778 2086 2707 
Q 2086 2656 2003 2505 
Q 1920 2355 1882 2355 
Q 1594 2355 1478 2368 
Q 1363 2381 1324 2384 
Q 1286 2387 1257 2390 
Q 1229 2394 1216 2394 
L 1203 2400 
Q 1082 2400 1046 2361 
Q 1011 2323 1011 2189 
L 986 998 
Q 986 582 1091 419 
Q 1197 256 1536 256 
Q 1670 256 1833 317 
Q 1997 378 2010 378 
Q 2074 378 2074 294 
Q 2074 211 1853 73 
Q 1632 -64 1376 -64 
Q 512 -64 512 685 
L 512 781 
L 538 2272 
Q 538 2336 512 2355 
Q 486 2374 403 2374 
z
" transform="scale(0.015625)"/>
        <path id="SortsMillGoudy-Regular-47" d="M 4339 2336 
L 4851 2342 
L 4947 2342 
Q 5050 2342 5050 2285 
Q 5050 2240 4886 2169 
Q 4723 2099 4704 1990 
Q 4659 1715 4659 1398 
Q 4659 1082 4665 934 
Q 4672 787 4675 726 
Q 4678 666 4684 621 
Q 4691 576 4691 550 
Q 4691 525 4643 509 
Q 4595 493 4486 464 
Q 4378 435 4288 380 
Q 4198 326 4153 300 
Q 4109 275 4035 236 
Q 3962 198 3885 160 
Q 3808 122 3712 80 
Q 3616 38 3513 6 
Q 3411 -26 3302 -51 
Q 3059 -109 2842 -109 
Q 2144 -109 1629 80 
Q 1114 269 832 589 
Q 282 1222 282 2106 
Q 282 2803 560 3360 
Q 838 3917 1414 4259 
Q 1990 4602 2784 4602 
Q 3546 4602 4102 4314 
Q 4230 4243 4297 4195 
Q 4365 4147 4381 4147 
Q 4397 4147 4464 4195 
Q 4531 4243 4557 4243 
Q 4653 4243 4656 4086 
Q 4659 3930 4681 3725 
Q 4704 3520 4723 3385 
Q 4742 3251 4742 3226 
Q 4742 3117 4665 3117 
Q 4589 3117 4557 3194 
Q 4333 3680 3808 4016 
Q 3283 4352 2726 4352 
Q 1926 4352 1404 3849 
Q 883 3347 883 2458 
Q 883 1869 1100 1350 
Q 1318 832 1763 493 
Q 2208 154 2742 154 
Q 3277 154 3677 378 
Q 4077 602 4122 890 
Q 4141 1043 4141 1696 
Q 4141 1946 4048 2038 
Q 3955 2131 3756 2153 
Q 3558 2176 3536 2217 
Q 3514 2259 3514 2298 
Q 3514 2368 3629 2368 
L 4339 2336 
z
" transform="scale(0.015625)"/>
        <path id="SortsMillGoudy-Regular-6e" d="M 1587 0 
L 1120 26 
Q 954 26 678 13 
L 403 0 
Q 307 0 307 57 
Q 307 115 339 128 
Q 371 141 419 147 
Q 467 154 512 186 
Q 634 262 646 649 
Q 659 1037 659 1158 
L 659 2080 
Q 659 2285 585 2355 
Q 512 2426 384 2426 
L 320 2426 
Q 198 2426 198 2496 
Q 198 2560 336 2579 
Q 474 2598 554 2620 
Q 634 2643 765 2697 
Q 896 2752 976 2790 
Q 1056 2829 1082 2829 
L 1094 2829 
Q 1152 2829 1152 2752 
L 1139 2477 
Q 1139 2310 1164 2310 
Q 1190 2310 1216 2342 
Q 1312 2477 1472 2573 
Q 1760 2752 2022 2752 
Q 2285 2752 2489 2672 
Q 2694 2592 2809 2473 
Q 2925 2355 3002 2202 
Q 3130 1946 3130 1677 
L 3130 1613 
L 3136 1274 
L 3136 621 
Q 3136 378 3203 285 
Q 3270 192 3526 154 
Q 3654 134 3654 58 
Q 3654 -6 3526 -6 
L 3002 26 
L 2509 0 
Q 2381 0 2381 83 
Q 2381 141 2458 160 
L 2541 179 
Q 2682 224 2682 608 
L 2682 1472 
Q 2682 1965 2438 2217 
Q 2195 2470 1888 2470 
Q 1581 2470 1376 2323 
Q 1171 2176 1126 2048 
Q 1082 1920 1082 1069 
L 1082 826 
Q 1082 506 1149 352 
Q 1216 198 1446 179 
Q 1510 179 1609 156 
Q 1709 134 1709 83 
Q 1709 0 1587 0 
z
" transform="scale(0.015625)"/>
       </defs>
       <use xlink:href="#SortsMillGoudy-Regular-4d"/>
       <use xlink:href="#SortsMillGoudy-Regular-65" transform="translate(91.899994 0)"/>
       <use xlink:href="#SortsMillGoudy-Regular-64" transform="translate(138.499985 0)"/>
       <use xlink:href="#SortsMillGoudy-Regular-69" transform="translate(194.999969 0)"/>
       <use xlink:href="#SortsMillGoudy-Regular-63" transform="translate(223.399963 0)"/>
       <use xlink:href="#SortsMillGoudy-Regular-61" transform="translate(268.59996 0)"/>
       <use xlink:href="#SortsMillGoudy-Regular-69" transform="translate(314.699951 0)"/>
       <use xlink:href="#SortsMillGoudy-Regular-64" transform="translate(343.099945 0)"/>
       <use xlink:href="#SortsMillGoudy-Regular-20" transform="translate(399.59993 0)"/>
       <use xlink:href="#SortsMillGoudy-Regular-4e" transform="translate(420.899918 0)"/>
       <use xlink:href="#SortsMillGoudy-Regular-65" transform="translate(500.699905 0)"/>
       <use xlink:href="#SortsMillGoudy-Regular-78" transform="translate(547.299896 0)"/>
       <use xlink:href="#SortsMillGoudy-Regular-74" transform="translate(602.099884 0)"/>
       <use xlink:href="#SortsMillGoudy-Regular-20" transform="translate(636.299881 0)"/>
       <use xlink:href="#SortsMillGoudy-Regular-47" transform="translate(657.599869 0)"/>
       <use xlink:href="#SortsMillGoudy-Regular-65" transform="translate(739.399857 0)"/>
       <use xlink:href="#SortsMillGoudy-Regular-6e" transform="translate(785.999847 0)"/>
       <use xlink:href="#SortsMillGoudy-Regular-65" transform="translate(845.099838 0)"/>
       <use xlink:href="#SortsMillGoudy-Regular-72" transform="translate(891.699829 0)"/>
       <use xlink:href="#SortsMillGoudy-Regular-61" transform="translate(929.199814 0)"/>
       <use xlink:href="#SortsMillGoudy-Regular-74" transform="translate(975.299805 0)"/>
       <use xlink:href="#SortsMillGoudy-Regular-69" transform="translate(1009.499802 0)"/>
       <use xlink:href="#SortsMillGoudy-Regular-6f" transform="translate(1037.899796 0)"/>
       <use xlink:href="#SortsMillGoudy-Regular-6e" transform="translate(1092.599792 0)"/>
      </g>
     </g>
    </g>
    <g id="ytick_3">
     <g id="line2d_11"/>
     <g id="text_10">
      <!-- Commercial Shared Savings -->
      <g style="fill: #cbb8a9" transform="translate(14.869172 137.790352) scale(0.095 -0.095)">
       <defs>
        <path id="SortsMillGoudy-Regular-53" d="M 2912 4410 
L 3059 4461 
Q 3142 4461 3155 4410 
Q 3290 3635 3290 3497 
Q 3290 3360 3200 3360 
Q 3142 3360 3088 3497 
Q 3034 3635 2960 3750 
Q 2886 3866 2854 3898 
Q 2822 3930 2688 4051 
Q 2342 4358 1897 4358 
Q 1453 4358 1184 4166 
Q 915 3974 915 3667 
Q 915 3360 1072 3174 
Q 1229 2989 1491 2886 
Q 1754 2784 2042 2694 
Q 2816 2451 3187 2061 
Q 3443 1786 3443 1376 
Q 3443 704 3014 310 
Q 2586 -83 1952 -83 
Q 1510 -83 1241 -35 
Q 973 13 691 160 
Q 608 211 493 659 
Q 378 1107 378 1219 
Q 378 1331 464 1331 
Q 550 1331 570 1267 
Q 806 698 1126 461 
Q 1472 198 1961 198 
Q 2451 198 2742 451 
Q 3034 704 3034 1114 
Q 3034 1414 2835 1616 
Q 2637 1818 2381 1907 
Q 1427 2227 1088 2426 
Q 506 2771 506 3353 
Q 506 3936 918 4278 
Q 1331 4621 1990 4621 
Q 2234 4621 2570 4515 
Q 2906 4410 2912 4410 
z
" transform="scale(0.015625)"/>
        <path id="SortsMillGoudy-Regular-68" d="M 845 32 
L 390 0 
Q 230 0 224 19 
Q 218 38 218 64 
Q 218 128 294 147 
Q 480 198 534 310 
Q 589 422 589 640 
L 614 2822 
L 614 3136 
Q 614 4006 576 4198 
Q 538 4390 346 4390 
L 262 4390 
L 237 4397 
Q 128 4397 128 4454 
Q 128 4512 195 4547 
Q 262 4582 387 4614 
Q 512 4646 742 4748 
Q 973 4851 1030 4851 
Q 1114 4851 1114 4704 
Q 1114 4672 1091 4550 
Q 1069 4429 1065 4080 
Q 1062 3731 1052 3331 
Q 1043 2931 1037 2790 
Q 1024 2522 1024 2413 
Q 1024 2304 1075 2304 
Q 1088 2304 1206 2422 
Q 1325 2541 1533 2659 
Q 1741 2778 1978 2778 
Q 2496 2778 2784 2470 
Q 3072 2163 3072 1517 
L 3072 589 
Q 3072 416 3136 320 
Q 3200 224 3283 218 
Q 3629 186 3629 83 
Q 3629 -19 3430 -19 
L 2893 13 
L 2400 -6 
Q 2253 -6 2253 58 
Q 2253 173 2426 173 
Q 2490 173 2544 243 
Q 2598 314 2598 461 
L 2605 627 
L 2611 1523 
Q 2611 1914 2374 2198 
Q 2138 2483 1827 2483 
Q 1517 2483 1197 2234 
Q 1082 2144 1050 1942 
Q 1018 1741 1018 1050 
L 1018 902 
Q 1018 614 1062 435 
Q 1133 186 1414 166 
Q 1504 160 1552 144 
Q 1600 128 1600 77 
Q 1600 0 1530 0 
L 1363 6 
Q 1197 13 1027 22 
Q 858 32 845 32 
z
" transform="scale(0.015625)"/>
        <path id="SortsMillGoudy-Regular-76" d="M 2752 2714 
L 3046 2720 
Q 3155 2720 3190 2701 
Q 3226 2682 3226 2637 
Q 3226 2592 3194 2573 
Q 3040 2483 2976 2394 
Q 2816 2176 2515 1536 
Q 2214 896 1964 403 
Q 1715 -90 1619 -90 
Q 1555 -90 1516 -22 
Q 1478 45 1264 544 
Q 1050 1043 826 1542 
Q 602 2042 467 2256 
Q 333 2470 265 2515 
Q 198 2560 163 2589 
Q 128 2618 128 2662 
Q 128 2733 250 2733 
L 704 2707 
L 1075 2701 
L 1325 2720 
Q 1440 2720 1440 2650 
Q 1440 2541 1286 2541 
Q 1018 2541 1018 2362 
Q 1018 2259 1120 2038 
Q 1222 1818 1305 1642 
Q 1389 1466 1443 1347 
Q 1498 1229 1587 1018 
Q 1760 608 1805 608 
Q 1869 608 2195 1382 
Q 2522 2157 2522 2294 
Q 2522 2432 2461 2486 
Q 2400 2541 2323 2534 
Q 2125 2509 2125 2637 
Q 2125 2720 2323 2720 
L 2752 2714 
z
" transform="scale(0.015625)"/>
        <path id="SortsMillGoudy-Regular-67" d="M 902 -1270 
Q 653 -1216 451 -1049 
Q 250 -883 250 -665 
Q 250 -448 365 -329 
Q 480 -211 595 -153 
Q 710 -96 710 -80 
Q 710 -64 678 -38 
Q 646 -13 602 19 
Q 499 102 499 297 
Q 499 493 582 633 
Q 666 774 749 844 
Q 832 915 832 937 
Q 832 960 765 1017 
Q 698 1075 614 1148 
Q 531 1222 464 1392 
Q 397 1562 397 1750 
Q 397 1939 445 2089 
Q 493 2240 605 2403 
Q 717 2566 950 2668 
Q 1184 2771 1469 2771 
Q 1754 2771 1933 2707 
Q 2112 2643 2198 2579 
Q 2285 2515 2323 2515 
Q 2362 2515 2637 2630 
Q 2726 2669 2771 2803 
Q 2816 2938 2867 2938 
Q 2950 2938 2950 2886 
Q 2950 2733 2905 2557 
Q 2861 2381 2797 2281 
Q 2733 2182 2547 2106 
Q 2618 1914 2618 1786 
Q 2618 1376 2310 1094 
Q 2003 813 1562 813 
Q 1395 813 1244 841 
Q 1094 870 1065 870 
Q 1037 870 985 857 
Q 934 845 857 768 
Q 781 691 781 557 
Q 781 339 979 281 
Q 1178 224 1638 224 
L 1933 224 
Q 2861 224 2861 -339 
Q 2861 -538 2816 -640 
Q 2694 -954 2316 -1139 
Q 1939 -1325 1440 -1325 
Q 1152 -1325 902 -1270 
z
M 621 -582 
Q 621 -864 857 -1008 
Q 1094 -1152 1465 -1152 
Q 1837 -1152 2153 -989 
Q 2470 -826 2470 -570 
Q 2470 -339 2246 -282 
Q 2074 -243 1760 -243 
L 1702 -243 
Q 1498 -243 1203 -198 
L 915 -154 
Q 851 -154 736 -282 
Q 621 -410 621 -582 
z
M 1488 2630 
Q 1216 2630 1049 2428 
Q 883 2227 883 1849 
Q 883 1472 1065 1216 
Q 1248 960 1529 960 
Q 1811 960 1964 1181 
Q 2118 1402 2118 1741 
Q 2118 2080 1939 2355 
Q 1760 2630 1488 2630 
z
" transform="scale(0.015625)"/>
        <path id="SortsMillGoudy-Regular-73" d="M 2099 2566 
L 2125 2182 
Q 2125 2074 2099 2035 
Q 2074 1997 2026 1997 
Q 1978 1997 1923 2089 
Q 1869 2182 1801 2291 
Q 1734 2400 1584 2493 
Q 1434 2586 1242 2586 
Q 1050 2586 928 2493 
Q 806 2400 806 2291 
Q 806 2182 825 2115 
Q 845 2048 893 1997 
Q 941 1946 976 1910 
Q 1011 1875 1094 1836 
Q 1178 1798 1219 1782 
Q 1261 1766 1357 1728 
Q 1939 1523 2105 1328 
Q 2272 1133 2272 768 
Q 2272 403 1933 96 
Q 1702 -102 1299 -102 
Q 1024 -102 685 32 
Q 589 70 573 73 
Q 557 77 521 89 
Q 486 102 470 105 
Q 454 109 428 121 
Q 403 134 393 144 
Q 384 154 371 173 
Q 352 205 352 275 
L 352 832 
Q 352 902 381 950 
Q 410 998 461 998 
Q 512 998 534 969 
Q 557 941 576 851 
Q 595 762 614 723 
Q 851 134 1280 134 
Q 1478 134 1657 240 
Q 1837 346 1837 573 
Q 1837 800 1689 941 
Q 1542 1082 1331 1162 
Q 1120 1242 909 1328 
Q 698 1414 550 1584 
Q 403 1754 403 2010 
Q 403 2368 691 2585 
Q 979 2803 1324 2803 
Q 1670 2803 1849 2748 
Q 2029 2694 2064 2649 
Q 2099 2605 2099 2566 
z
" transform="scale(0.015625)"/>
       </defs>
       <use xlink:href="#SortsMillGoudy-Regular-43"/>
       <use xlink:href="#SortsMillGoudy-Regular-6f" transform="translate(80.699982 0)"/>
       <use xlink:href="#SortsMillGoudy-Regular-6d" transform="translate(135.399979 0)"/>
       <use xlink:href="#SortsMillGoudy-Regular-6d" transform="translate(218.09996 0)"/>
       <use xlink:href="#SortsMillGoudy-Regular-65" transform="translate(300.799942 0)"/>
       <use xlink:href="#SortsMillGoudy-Regular-72" transform="translate(347.399933 0)"/>
       <use xlink:href="#SortsMillGoudy-Regular-63" transform="translate(384.899918 0)"/>
       <use xlink:href="#SortsMillGoudy-Regular-69" transform="translate(430.099915 0)"/>
       <use xlink:href="#SortsMillGoudy-Regular-61" transform="translate(458.499908 0)"/>
       <use xlink:href="#SortsMillGoudy-Regular-6c" transform="translate(504.599899 0)"/>
       <use xlink:href="#SortsMillGoudy-Regular-20" transform="translate(532.499893 0)"/>
       <use xlink:href="#SortsMillGoudy-Regular-53" transform="translate(553.799881 0)"/>
       <use xlink:href="#SortsMillGoudy-Regular-68" transform="translate(613.399872 0)"/>
       <use xlink:href="#SortsMillGoudy-Regular-61" transform="translate(672.099869 0)"/>
       <use xlink:href="#SortsMillGoudy-Regular-72" transform="translate(718.19986 0)"/>
       <use xlink:href="#SortsMillGoudy-Regular-65" transform="translate(755.699844 0)"/>
       <use xlink:href="#SortsMillGoudy-Regular-64" transform="translate(802.299835 0)"/>
       <use xlink:href="#SortsMillGoudy-Regular-20" transform="translate(858.79982 0)"/>
       <use xlink:href="#SortsMillGoudy-Regular-53" transform="translate(880.099808 0)"/>
       <use xlink:href="#SortsMillGoudy-Regular-61" transform="translate(939.699799 0)"/>
       <use xlink:href="#SortsMillGoudy-Regular-76" transform="translate(985.799789 0)"/>
       <use xlink:href="#SortsMillGoudy-Regular-69" transform="translate(1038.099777 0)"/>
       <use xlink:href="#SortsMillGoudy-Regular-6e" transform="translate(1066.499771 0)"/>
       <use xlink:href="#SortsMillGoudy-Regular-67" transform="translate(1125.599762 0)"/>
       <use xlink:href="#SortsMillGoudy-Regular-73" transform="translate(1174.39975 0)"/>
      </g>
     </g>
    </g>
    <g id="ytick_4">
     <g id="line2d_12"/>
     <g id="text_11">
      <!-- Medicaid Shared Savings -->
      <g style="fill: #cbb8a9" transform="translate(27.495266 109.390352) scale(0.095 -0.095)">
       <use xlink:href="#SortsMillGoudy-Regular-4d"/>
       <use xlink:href="#SortsMillGoudy-Regular-65" transform="translate(91.899994 0)"/>
       <use xlink:href="#SortsMillGoudy-Regular-64" transform="translate(138.499985 0)"/>
       <use xlink:href="#SortsMillGoudy-Regular-69" transform="translate(194.999969 0)"/>
       <use xlink:href="#SortsMillGoudy-Regular-63" transform="translate(223.399963 0)"/>
       <use xlink:href="#SortsMillGoudy-Regular-61" transform="translate(268.59996 0)"/>
       <use xlink:href="#SortsMillGoudy-Regular-69" transform="translate(314.699951 0)"/>
       <use xlink:href="#SortsMillGoudy-Regular-64" transform="translate(343.099945 0)"/>
       <use xlink:href="#SortsMillGoudy-Regular-20" transform="translate(399.59993 0)"/>
       <use xlink:href="#SortsMillGoudy-Regular-53" transform="translate(420.899918 0)"/>
       <use xlink:href="#SortsMillGoudy-Regular-68" transform="translate(480.499908 0)"/>
       <use xlink:href="#SortsMillGoudy-Regular-61" transform="translate(539.199905 0)"/>
       <use xlink:href="#SortsMillGoudy-Regular-72" transform="translate(585.299896 0)"/>
       <use xlink:href="#SortsMillGoudy-Regular-65" transform="translate(622.799881 0)"/>
       <use xlink:href="#SortsMillGoudy-Regular-64" transform="translate(669.399872 0)"/>
       <use xlink:href="#SortsMillGoudy-Regular-20" transform="translate(725.899857 0)"/>
       <use xlink:href="#SortsMillGoudy-Regular-53" transform="translate(747.199844 0)"/>
       <use xlink:href="#SortsMillGoudy-Regular-61" transform="translate(806.799835 0)"/>
       <use xlink:href="#SortsMillGoudy-Regular-76" transform="translate(852.899826 0)"/>
       <use xlink:href="#SortsMillGoudy-Regular-69" transform="translate(905.199814 0)"/>
       <use xlink:href="#SortsMillGoudy-Regular-6e" transform="translate(933.599808 0)"/>
       <use xlink:href="#SortsMillGoudy-Regular-67" transform="translate(992.699799 0)"/>
       <use xlink:href="#SortsMillGoudy-Regular-73" transform="translate(1041.499786 0)"/>
      </g>
     </g>
    </g>
    <g id="ytick_5">
     <g id="line2d_13"/>
     <g id="text_12">
      <!-- Medicare Shared Savings -->
      <g style="fill: #cbb8a9" transform="translate(27.572453 80.990352) scale(0.095 -0.095)">
       <use xlink:href="#SortsMillGoudy-Regular-4d"/>
       <use xlink:href="#SortsMillGoudy-Regular-65" transform="translate(91.899994 0)"/>
       <use xlink:href="#SortsMillGoudy-Regular-64" transform="translate(138.499985 0)"/>
       <use xlink:href="#SortsMillGoudy-Regular-69" transform="translate(194.999969 0)"/>
       <use xlink:href="#SortsMillGoudy-Regular-63" transform="translate(223.399963 0)"/>
       <use xlink:href="#SortsMillGoudy-Regular-61" transform="translate(268.59996 0)"/>
       <use xlink:href="#SortsMillGoudy-Regular-72" transform="translate(314.699951 0)"/>
       <use xlink:href="#SortsMillGoudy-Regular-65" transform="translate(352.199936 0)"/>
       <use xlink:href="#SortsMillGoudy-Regular-20" transform="translate(398.799927 0)"/>
       <use xlink:href="#SortsMillGoudy-Regular-53" transform="translate(420.099915 0)"/>
       <use xlink:href="#SortsMillGoudy-Regular-68" transform="translate(479.699905 0)"/>
       <use xlink:href="#SortsMillGoudy-Regular-61" transform="translate(538.399902 0)"/>
       <use xlink:href="#SortsMillGoudy-Regular-72" transform="translate(584.499893 0)"/>
       <use xlink:href="#SortsMillGoudy-Regular-65" transform="translate(621.999878 0)"/>
       <use xlink:href="#SortsMillGoudy-Regular-64" transform="translate(668.599869 0)"/>
       <use xlink:href="#SortsMillGoudy-Regular-20" transform="translate(725.099854 0)"/>
       <use xlink:href="#SortsMillGoudy-Regular-53" transform="translate(746.399841 0)"/>
       <use xlink:href="#SortsMillGoudy-Regular-61" transform="translate(805.999832 0)"/>
       <use xlink:href="#SortsMillGoudy-Regular-76" transform="translate(852.099823 0)"/>
       <use xlink:href="#SortsMillGoudy-Regular-69" transform="translate(904.399811 0)"/>
       <use xlink:href="#SortsMillGoudy-Regular-6e" transform="translate(932.799805 0)"/>
       <use xlink:href="#SortsMillGoudy-Regular-67" transform="translate(991.899796 0)"/>
       <use xlink:href="#SortsMillGoudy-Regular-73" transform="translate(1040.699783 0)"/>
      </g>
     </g>
    </g>
   </g>
   <g id="patch_4">
    <path d="M 133.668 210.87 
L 548.892 210.87 
" style="fill: none; stroke: #5c5048; stroke-width: 0.8; stroke-linejoin: miter; stroke-linecap: square"/>
   </g>
   <g id="patch_5">
    <path d="M 302.164696 197.522 
L 542.874261 197.522 
L 542.874261 184.458 
L 302.164696 184.458 
z
" clip-path="url(#pca8d6069b0)" style="fill: #e04a42"/>
   </g>
   <g id="patch_6">
    <path d="M 272.076 169.122 
L 542.874261 169.122 
L 542.874261 156.058 
L 272.076 156.058 
L 272.076 169.122 
z
" clip-path="url(#pca8d6069b0)" style="fill: none; stroke: #ececec; stroke-width: 1.3; stroke-linejoin: miter"/>
   </g>
   <g id="patch_7">
    <path d="M 181.809913 140.722 
L 272.076 140.722 
L 272.076 127.658 
L 181.809913 127.658 
L 181.809913 140.722 
z
" clip-path="url(#pca8d6069b0)" style="fill: none; stroke: #ececec; stroke-width: 1.3; stroke-linejoin: miter"/>
   </g>
   <g id="patch_8">
    <path d="M 181.809913 112.322 
L 272.076 112.322 
L 272.076 99.258 
L 181.809913 99.258 
L 181.809913 112.322 
z
" clip-path="url(#pca8d6069b0)" style="fill: none; stroke: #ececec; stroke-width: 1.3; stroke-linejoin: miter"/>
   </g>
   <g id="patch_9">
    <path d="M 151.721217 83.922 
L 302.164696 83.922 
L 302.164696 70.858 
L 151.721217 70.858 
L 151.721217 83.922 
z
" clip-path="url(#pca8d6069b0)" style="fill: none; stroke: #ececec; stroke-width: 1.3; stroke-linejoin: miter"/>
   </g>
   <g id="text_13">
    <!-- synthetic control pre-period -->
    <g style="fill: #cbb8a9" transform="translate(186.323217 66.697367) scale(0.085 -0.085)">
     <use xlink:href="#SortsMillGoudy-Regular-73"/>
     <use xlink:href="#SortsMillGoudy-Regular-79" transform="translate(39.299988 0)"/>
     <use xlink:href="#SortsMillGoudy-Regular-6e" transform="translate(89.099976 0)"/>
     <use xlink:href="#SortsMillGoudy-Regular-74" transform="translate(148.199966 0)"/>
     <use xlink:href="#SortsMillGoudy-Regular-68" transform="translate(182.399963 0)"/>
     <use xlink:href="#SortsMillGoudy-Regular-65" transform="translate(241.09996 0)"/>
     <use xlink:href="#SortsMillGoudy-Regular-74" transform="translate(287.699951 0)"/>
     <use xlink:href="#SortsMillGoudy-Regular-69" transform="translate(321.899948 0)"/>
     <use xlink:href="#SortsMillGoudy-Regular-63" transform="translate(350.299942 0)"/>
     <use xlink:href="#SortsMillGoudy-Regular-20" transform="translate(395.499939 0)"/>
     <use xlink:href="#SortsMillGoudy-Regular-63" transform="translate(416.799927 0)"/>
     <use xlink:href="#SortsMillGoudy-Regular-6f" transform="translate(461.999924 0)"/>
     <use xlink:href="#SortsMillGoudy-Regular-6e" transform="translate(516.699921 0)"/>
     <use xlink:href="#SortsMillGoudy-Regular-74" transform="translate(575.799911 0)"/>
     <use xlink:href="#SortsMillGoudy-Regular-72" transform="translate(609.999908 0)"/>
     <use xlink:href="#SortsMillGoudy-Regular-6f" transform="translate(647.499893 0)"/>
     <use xlink:href="#SortsMillGoudy-Regular-6c" transform="translate(702.19989 0)"/>
     <use xlink:href="#SortsMillGoudy-Regular-20" transform="translate(730.099884 0)"/>
     <use xlink:href="#SortsMillGoudy-Regular-70" transform="translate(751.399872 0)"/>
     <use xlink:href="#SortsMillGoudy-Regular-72" transform="translate(806.899857 0)"/>
     <use xlink:href="#SortsMillGoudy-Regular-65" transform="translate(844.399841 0)"/>
     <use xlink:href="#SortsMillGoudy-Regular-2d" transform="translate(890.999832 0)"/>
     <use xlink:href="#SortsMillGoudy-Regular-70" transform="translate(924.999817 0)"/>
     <use xlink:href="#SortsMillGoudy-Regular-65" transform="translate(980.499802 0)"/>
     <use xlink:href="#SortsMillGoudy-Regular-72" transform="translate(1027.099792 0)"/>
     <use xlink:href="#SortsMillGoudy-Regular-69" transform="translate(1064.599777 0)"/>
     <use xlink:href="#SortsMillGoudy-Regular-6f" transform="translate(1092.999771 0)"/>
     <use xlink:href="#SortsMillGoudy-Regular-64" transform="translate(1147.699768 0)"/>
    </g>
   </g>
   <g id="text_14">
    <!-- Vermont payment-reform programs by year of operation -->
    <g style="fill: #cbb8a9" transform="translate(66.696387 50.51) scale(0.105 -0.105)">
     <defs>
      <path id="SortsMillGoudy-Regular-56" d="M 4346 4538 
L 4915 4550 
Q 5037 4550 5037 4461 
Q 5037 4390 4896 4326 
Q 4838 4301 4761 4217 
Q 4685 4134 4627 4000 
L 3200 749 
Q 3046 403 2937 137 
Q 2829 -128 2809 -160 
Q 2790 -192 2758 -192 
Q 2643 -192 2473 237 
Q 2304 666 1936 1466 
Q 1568 2266 1369 2714 
Q 1171 3162 1084 3373 
Q 998 3584 922 3750 
Q 806 4026 710 4131 
Q 614 4237 496 4288 
Q 378 4339 307 4339 
Q 128 4326 128 4454 
Q 128 4544 307 4544 
L 1011 4518 
L 1427 4531 
Q 1574 4531 1606 4518 
Q 1638 4506 1638 4464 
Q 1638 4422 1574 4390 
Q 1376 4288 1376 4182 
Q 1376 4077 1398 3990 
Q 1421 3904 1497 3725 
Q 1574 3546 1654 3366 
Q 1734 3187 1916 2787 
Q 2099 2387 2272 1997 
Q 2810 762 2912 762 
Q 2944 762 3280 1536 
Q 3616 2310 3942 3155 
Q 4269 4000 4269 4128 
Q 4269 4256 4195 4310 
Q 4122 4365 4038 4378 
Q 3808 4403 3808 4480 
Q 3808 4525 3830 4534 
Q 3853 4544 3942 4544 
L 4346 4538 
z
" transform="scale(0.015625)"/>
      <path id="SortsMillGoudy-Regular-66" d="M 582 2400 
L 326 2381 
Q 186 2381 186 2464 
Q 186 2579 240 2617 
Q 294 2656 454 2656 
L 589 2656 
Q 666 2656 685 2691 
Q 704 2726 704 2803 
Q 704 3270 857 3664 
Q 1011 4058 1242 4288 
Q 1715 4781 2112 4781 
Q 2259 4781 2352 4733 
Q 2445 4685 2445 4602 
Q 2445 4576 2422 4489 
Q 2400 4403 2393 4377 
Q 2387 4352 2380 4336 
Q 2374 4320 2368 4301 
Q 2362 4282 2355 4272 
Q 2349 4262 2339 4249 
Q 2330 4237 2317 4230 
Q 2298 4218 2266 4218 
Q 2234 4218 2202 4262 
Q 2106 4384 1859 4384 
Q 1613 4384 1475 4249 
Q 1338 4115 1267 3891 
Q 1133 3456 1133 2931 
L 1133 2771 
Q 1133 2650 1210 2650 
Q 1773 2650 1894 2739 
Q 1939 2765 1964 2765 
Q 1990 2765 1990 2697 
Q 1990 2630 1901 2470 
Q 1862 2413 1741 2413 
L 1242 2406 
Q 1139 2406 1139 2342 
L 1139 1971 
L 1171 704 
Q 1171 365 1261 256 
Q 1363 122 1574 122 
Q 1683 122 1683 26 
Q 1683 -38 1613 -38 
L 973 -6 
L 499 -38 
Q 403 -38 403 51 
Q 403 83 483 115 
Q 563 147 640 233 
Q 717 320 717 429 
Q 717 538 710 742 
Q 691 1370 691 2298 
Q 691 2368 668 2384 
Q 646 2400 582 2400 
z
" transform="scale(0.015625)"/>
      <path id="SortsMillGoudy-Regular-62" d="M 448 -26 
L 474 499 
Q 474 710 502 1254 
Q 531 1798 531 2189 
L 531 3770 
Q 531 4352 243 4352 
L 179 4352 
Q 77 4352 77 4416 
Q 77 4480 141 4525 
Q 205 4570 345 4618 
Q 486 4666 512 4675 
Q 538 4685 640 4736 
Q 858 4838 896 4838 
Q 934 4838 966 4806 
Q 998 4774 998 4723 
L 998 4595 
L 992 3814 
L 992 2630 
Q 992 2400 1037 2400 
Q 1062 2400 1113 2467 
Q 1165 2534 1238 2614 
Q 1312 2694 1523 2761 
Q 1734 2829 2048 2829 
Q 2618 2829 2934 2432 
Q 3251 2035 3251 1504 
Q 3251 1203 3094 809 
Q 2938 416 2669 211 
Q 2298 -70 1779 -70 
Q 1517 -70 1293 22 
Q 1069 115 957 208 
Q 845 301 838 301 
Q 813 301 713 96 
Q 614 -109 525 -109 
Q 448 -109 448 -26 
z
M 992 845 
Q 992 672 1245 416 
Q 1498 160 1933 160 
Q 2368 160 2601 457 
Q 2835 755 2835 1222 
Q 2835 1690 2531 2086 
Q 2227 2483 1709 2483 
Q 1408 2483 1200 2310 
Q 992 2138 992 2003 
L 992 845 
z
" transform="scale(0.015625)"/>
     </defs>
     <use xlink:href="#SortsMillGoudy-Regular-56"/>
     <use xlink:href="#SortsMillGoudy-Regular-65" transform="translate(80.699982 0)"/>
     <use xlink:href="#SortsMillGoudy-Regular-72" transform="translate(127.299973 0)"/>
     <use xlink:href="#SortsMillGoudy-Regular-6d" transform="translate(164.799957 0)"/>
     <use xlink:href="#SortsMillGoudy-Regular-6f" transform="translate(247.499939 0)"/>
     <use xlink:href="#SortsMillGoudy-Regular-6e" transform="translate(302.199936 0)"/>
     <use xlink:href="#SortsMillGoudy-Regular-74" transform="translate(361.299927 0)"/>
     <use xlink:href="#SortsMillGoudy-Regular-20" transform="translate(395.499924 0)"/>
     <use xlink:href="#SortsMillGoudy-Regular-70" transform="translate(416.799911 0)"/>
     <use xlink:href="#SortsMillGoudy-Regular-61" transform="translate(472.299896 0)"/>
     <use xlink:href="#SortsMillGoudy-Regular-79" transform="translate(518.399887 0)"/>
     <use xlink:href="#SortsMillGoudy-Regular-6d" transform="translate(568.199875 0)"/>
     <use xlink:href="#SortsMillGoudy-Regular-65" transform="translate(650.899857 0)"/>
     <use xlink:href="#SortsMillGoudy-Regular-6e" transform="translate(697.499847 0)"/>
     <use xlink:href="#SortsMillGoudy-Regular-74" transform="translate(756.599838 0)"/>
     <use xlink:href="#SortsMillGoudy-Regular-2d" transform="translate(790.799835 0)"/>
     <use xlink:href="#SortsMillGoudy-Regular-72" transform="translate(824.79982 0)"/>
     <use xlink:href="#SortsMillGoudy-Regular-65" transform="translate(862.299805 0)"/>
     <use xlink:href="#SortsMillGoudy-Regular-66" transform="translate(908.899796 0)"/>
     <use xlink:href="#SortsMillGoudy-Regular-6f" transform="translate(943.39978 0)"/>
     <use xlink:href="#SortsMillGoudy-Regular-72" transform="translate(998.099777 0)"/>
     <use xlink:href="#SortsMillGoudy-Regular-6d" transform="translate(1035.599762 0)"/>
     <use xlink:href="#SortsMillGoudy-Regular-20" transform="translate(1118.299744 0)"/>
     <use xlink:href="#SortsMillGoudy-Regular-70" transform="translate(1139.599731 0)"/>
     <use xlink:href="#SortsMillGoudy-Regular-72" transform="translate(1195.099716 0)"/>
     <use xlink:href="#SortsMillGoudy-Regular-6f" transform="translate(1232.599701 0)"/>
     <use xlink:href="#SortsMillGoudy-Regular-67" transform="translate(1287.299698 0)"/>
     <use xlink:href="#SortsMillGoudy-Regular-72" transform="translate(1336.099686 0)"/>
     <use xlink:href="#SortsMillGoudy-Regular-61" transform="translate(1373.59967 0)"/>
     <use xlink:href="#SortsMillGoudy-Regular-6d" transform="translate(1419.699661 0)"/>
     <use xlink:href="#SortsMillGoudy-Regular-73" transform="translate(1502.399643 0)"/>
     <use xlink:href="#SortsMillGoudy-Regular-20" transform="translate(1541.699631 0)"/>
     <use xlink:href="#SortsMillGoudy-Regular-62" transform="translate(1562.999619 0)"/>
     <use xlink:href="#SortsMillGoudy-Regular-79" transform="translate(1617.699615 0)"/>
     <use xlink:href="#SortsMillGoudy-Regular-20" transform="translate(1667.499603 0)"/>
     <use xlink:href="#SortsMillGoudy-Regular-79" transform="translate(1688.799591 0)"/>
     <use xlink:href="#SortsMillGoudy-Regular-65" transform="translate(1738.599579 0)"/>
     <use xlink:href="#SortsMillGoudy-Regular-61" transform="translate(1785.19957 0)"/>
     <use xlink:href="#SortsMillGoudy-Regular-72" transform="translate(1831.299561 0)"/>
     <use xlink:href="#SortsMillGoudy-Regular-20" transform="translate(1868.799545 0)"/>
     <use xlink:href="#SortsMillGoudy-Regular-6f" transform="translate(1890.099533 0)"/>
     <use xlink:href="#SortsMillGoudy-Regular-66" transform="translate(1944.79953 0)"/>
     <use xlink:href="#SortsMillGoudy-Regular-20" transform="translate(1979.299515 0)"/>
     <use xlink:href="#SortsMillGoudy-Regular-6f" transform="translate(2000.599503 0)"/>
     <use xlink:href="#SortsMillGoudy-Regular-70" transform="translate(2055.2995 0)"/>
     <use xlink:href="#SortsMillGoudy-Regular-65" transform="translate(2110.799484 0)"/>
     <use xlink:href="#SortsMillGoudy-Regular-72" transform="translate(2157.399475 0)"/>
     <use xlink:href="#SortsMillGoudy-Regular-61" transform="translate(2194.89946 0)"/>
     <use xlink:href="#SortsMillGoudy-Regular-74" transform="translate(2240.999451 0)"/>
     <use xlink:href="#SortsMillGoudy-Regular-69" transform="translate(2275.199448 0)"/>
     <use xlink:href="#SortsMillGoudy-Regular-6f" transform="translate(2303.599442 0)"/>
     <use xlink:href="#SortsMillGoudy-Regular-6e" transform="translate(2358.299438 0)"/>
    </g>
   </g>
  </g>
  <g id="text_15">
   <!-- The pre-period was not a period without reform -->
   <g style="fill: #f2e9e2" transform="translate(0 31.832578) scale(0.135 -0.135)">
    <defs>
     <path id="SortsMillGoudy-Regular-54" d="M 409 4595 
Q 493 4595 931 4569 
Q 1370 4544 2656 4544 
Q 3942 4544 4211 4582 
Q 4282 4582 4307 4544 
Q 4333 4506 4333 4474 
L 4371 3955 
Q 4371 3795 4352 3753 
Q 4333 3712 4269 3712 
Q 4218 3712 4182 3843 
Q 4147 3974 4109 4045 
Q 4013 4211 3552 4211 
L 2720 4211 
Q 2566 4211 2531 4150 
Q 2496 4090 2496 3802 
L 2496 3488 
L 2477 1146 
L 2470 730 
Q 2470 454 2556 371 
Q 2643 288 2745 246 
Q 2848 205 2918 198 
Q 3098 186 3098 83 
Q 3098 13 3066 -6 
Q 3034 -26 2944 -26 
L 2234 26 
L 1581 -19 
Q 1344 -19 1344 83 
Q 1344 147 1382 169 
Q 1421 192 1533 208 
Q 1645 224 1677 230 
Q 1894 282 1920 486 
Q 1984 1050 1984 2906 
L 1978 4051 
Q 1978 4173 1907 4201 
Q 1837 4230 1440 4230 
Q 1043 4230 816 4204 
Q 589 4179 550 4156 
Q 512 4134 457 4064 
Q 403 3994 368 3901 
Q 333 3808 320 3750 
Q 301 3603 198 3603 
Q 128 3603 128 3712 
Q 128 3968 160 4176 
Q 192 4384 195 4416 
Q 198 4448 201 4457 
Q 205 4467 208 4489 
Q 211 4512 217 4521 
Q 224 4531 233 4547 
Q 243 4563 256 4569 
Q 269 4576 288 4582 
Q 326 4595 409 4595 
z
" transform="scale(0.015625)"/>
     <path id="SortsMillGoudy-Regular-77" d="M 2624 2701 
L 2822 2707 
Q 2963 2707 2963 2618 
Q 2963 2573 2944 2566 
Q 2906 2554 2867 2554 
Q 2675 2541 2675 2374 
Q 2675 2138 3053 1306 
Q 3104 1203 3174 1024 
Q 3315 659 3354 659 
Q 3418 659 3690 1360 
Q 3962 2061 3962 2227 
Q 3962 2394 3907 2454 
Q 3853 2515 3789 2522 
Q 3610 2547 3610 2650 
Q 3610 2701 3744 2701 
L 4480 2701 
Q 4602 2701 4634 2688 
Q 4666 2675 4666 2617 
Q 4666 2560 4560 2518 
Q 4454 2477 4390 2387 
Q 4326 2298 4275 2192 
Q 4224 2086 4160 1933 
Q 3968 1453 3680 845 
Q 3392 237 3363 179 
Q 3334 122 3290 45 
Q 3226 -83 3168 -83 
Q 3059 -83 2758 745 
Q 2458 1574 2406 1574 
Q 2387 1574 1996 755 
Q 1606 -64 1485 -64 
Q 1434 -64 1389 25 
Q 1344 115 1142 640 
Q 941 1165 813 1481 
Q 685 1798 630 1955 
Q 576 2112 550 2176 
Q 461 2355 250 2534 
Q 224 2560 192 2576 
Q 160 2592 147 2598 
Q 128 2618 128 2662 
Q 128 2733 250 2733 
L 704 2707 
L 1018 2714 
Q 1210 2714 1264 2704 
Q 1318 2694 1318 2643 
Q 1318 2592 1248 2573 
Q 1037 2528 1037 2320 
Q 1037 2112 1395 1306 
Q 1440 1216 1517 1027 
Q 1594 838 1638 752 
Q 1683 666 1708 666 
Q 1734 666 1872 925 
Q 2010 1184 2058 1280 
Q 2106 1376 2131 1424 
Q 2157 1472 2189 1533 
Q 2221 1594 2233 1622 
Q 2246 1651 2262 1689 
Q 2278 1728 2284 1744 
Q 2291 1760 2297 1789 
Q 2304 1818 2304 1837 
L 2304 1882 
Q 2304 1926 2243 2073 
Q 2182 2221 2115 2320 
Q 2048 2419 1971 2483 
Q 1894 2547 1856 2560 
Q 1754 2598 1754 2656 
Q 1754 2714 1850 2714 
L 2624 2701 
z
" transform="scale(0.015625)"/>
     <path id="SortsMillGoudy-Regular-75" d="M 602 998 
L 608 2150 
Q 608 2278 541 2355 
Q 474 2432 416 2432 
L 301 2432 
Q 186 2432 186 2521 
Q 186 2611 310 2636 
Q 435 2662 614 2662 
L 979 2694 
Q 1088 2694 1107 2649 
Q 1126 2605 1126 2425 
Q 1126 2246 1110 1936 
Q 1094 1626 1094 1248 
Q 1094 685 1312 451 
Q 1530 218 1805 218 
Q 2214 218 2400 390 
Q 2586 563 2586 998 
L 2573 1882 
Q 2573 2202 2521 2314 
Q 2470 2426 2304 2442 
Q 2138 2458 2138 2528 
Q 2138 2675 2701 2675 
L 2931 2707 
Q 3027 2707 3056 2675 
Q 3085 2643 3085 2582 
Q 3085 2522 3081 2429 
Q 3078 2336 3075 2182 
Q 3072 2029 3066 1837 
Q 3053 1453 3053 979 
Q 3053 506 3091 365 
Q 3130 224 3232 224 
L 3398 230 
Q 3552 230 3552 153 
Q 3552 77 3507 57 
Q 3462 38 3334 38 
Q 3206 38 2947 3 
Q 2688 -32 2669 -32 
Q 2624 -32 2595 131 
Q 2566 294 2556 294 
Q 2547 294 2432 192 
Q 2317 90 2102 -12 
Q 1888 -115 1632 -115 
Q 602 -115 602 998 
z
" transform="scale(0.015625)"/>
    </defs>
    <use xlink:href="#SortsMillGoudy-Regular-54"/>
    <use xlink:href="#SortsMillGoudy-Regular-68" transform="translate(70.299988 0)"/>
    <use xlink:href="#SortsMillGoudy-Regular-65" transform="translate(128.999985 0)"/>
    <use xlink:href="#SortsMillGoudy-Regular-20" transform="translate(175.599976 0)"/>
    <use xlink:href="#SortsMillGoudy-Regular-70" transform="translate(196.899963 0)"/>
    <use xlink:href="#SortsMillGoudy-Regular-72" transform="translate(252.399948 0)"/>
    <use xlink:href="#SortsMillGoudy-Regular-65" transform="translate(289.899933 0)"/>
    <use xlink:href="#SortsMillGoudy-Regular-2d" transform="translate(336.499924 0)"/>
    <use xlink:href="#SortsMillGoudy-Regular-70" transform="translate(370.499908 0)"/>
    <use xlink:href="#SortsMillGoudy-Regular-65" transform="translate(425.999893 0)"/>
    <use xlink:href="#SortsMillGoudy-Regular-72" transform="translate(472.599884 0)"/>
    <use xlink:href="#SortsMillGoudy-Regular-69" transform="translate(510.099869 0)"/>
    <use xlink:href="#SortsMillGoudy-Regular-6f" transform="translate(538.499863 0)"/>
    <use xlink:href="#SortsMillGoudy-Regular-64" transform="translate(593.19986 0)"/>
    <use xlink:href="#SortsMillGoudy-Regular-20" transform="translate(649.699844 0)"/>
    <use xlink:href="#SortsMillGoudy-Regular-77" transform="translate(670.999832 0)"/>
    <use xlink:href="#SortsMillGoudy-Regular-61" transform="translate(745.79982 0)"/>
    <use xlink:href="#SortsMillGoudy-Regular-73" transform="translate(791.899811 0)"/>
    <use xlink:href="#SortsMillGoudy-Regular-20" transform="translate(831.199799 0)"/>
    <use xlink:href="#SortsMillGoudy-Regular-6e" transform="translate(852.499786 0)"/>
    <use xlink:href="#SortsMillGoudy-Regular-6f" transform="translate(911.599777 0)"/>
    <use xlink:href="#SortsMillGoudy-Regular-74" transform="translate(966.299774 0)"/>
    <use xlink:href="#SortsMillGoudy-Regular-20" transform="translate(1000.499771 0)"/>
    <use xlink:href="#SortsMillGoudy-Regular-61" transform="translate(1021.799759 0)"/>
    <use xlink:href="#SortsMillGoudy-Regular-20" transform="translate(1067.89975 0)"/>
    <use xlink:href="#SortsMillGoudy-Regular-70" transform="translate(1089.199738 0)"/>
    <use xlink:href="#SortsMillGoudy-Regular-65" transform="translate(1144.699722 0)"/>
    <use xlink:href="#SortsMillGoudy-Regular-72" transform="translate(1191.299713 0)"/>
    <use xlink:href="#SortsMillGoudy-Regular-69" transform="translate(1228.799698 0)"/>
    <use xlink:href="#SortsMillGoudy-Regular-6f" transform="translate(1257.199692 0)"/>
    <use xlink:href="#SortsMillGoudy-Regular-64" transform="translate(1311.899689 0)"/>
    <use xlink:href="#SortsMillGoudy-Regular-20" transform="translate(1368.399673 0)"/>
    <use xlink:href="#SortsMillGoudy-Regular-77" transform="translate(1389.699661 0)"/>
    <use xlink:href="#SortsMillGoudy-Regular-69" transform="translate(1464.499649 0)"/>
    <use xlink:href="#SortsMillGoudy-Regular-74" transform="translate(1492.899643 0)"/>
    <use xlink:href="#SortsMillGoudy-Regular-68" transform="translate(1527.09964 0)"/>
    <use xlink:href="#SortsMillGoudy-Regular-6f" transform="translate(1585.799637 0)"/>
    <use xlink:href="#SortsMillGoudy-Regular-75" transform="translate(1640.499634 0)"/>
    <use xlink:href="#SortsMillGoudy-Regular-74" transform="translate(1698.099625 0)"/>
    <use xlink:href="#SortsMillGoudy-Regular-20" transform="translate(1732.299622 0)"/>
    <use xlink:href="#SortsMillGoudy-Regular-72" transform="translate(1753.599609 0)"/>
    <use xlink:href="#SortsMillGoudy-Regular-65" transform="translate(1791.099594 0)"/>
    <use xlink:href="#SortsMillGoudy-Regular-66" transform="translate(1837.699585 0)"/>
    <use xlink:href="#SortsMillGoudy-Regular-6f" transform="translate(1872.19957 0)"/>
    <use xlink:href="#SortsMillGoudy-Regular-72" transform="translate(1926.899567 0)"/>
    <use xlink:href="#SortsMillGoudy-Regular-6d" transform="translate(1964.399551 0)"/>
   </g>
  </g>
 </g>
 <defs>
  <clipPath id="pca8d6069b0">
   <rect x="133.668" y="57.51" width="415.224" height="153.36"/>
  </clipPath>
 </defs>
</svg>
